<?xml version="1.0" encoding="UTF-8" standalone="no"?>
<!-- Generator: Adobe Illustrator 16.0.0, SVG Export Plug-In . SVG Version: 6.00 Build 0)  -->

<svg
   xmlns:dc="http://purl.org/dc/elements/1.1/"
   xmlns:cc="http://creativecommons.org/ns#"
   xmlns:rdf="http://www.w3.org/1999/02/22-rdf-syntax-ns#"
   xmlns:svg="http://www.w3.org/2000/svg"
   xmlns="http://www.w3.org/2000/svg"
   xmlns:sodipodi="http://sodipodi.sourceforge.net/DTD/sodipodi-0.dtd"
   xmlns:inkscape="http://www.inkscape.org/namespaces/inkscape"
   version="1.1"
   id="Layer_1"
   x="0px"
   y="0px"
   width="512px"
   height="512px"
   viewBox="0 0 512 512"
   enable-background="new 0 0 512 512"
   xml:space="preserve"
   inkscape:version="0.48.5 r10040"
   sodipodi:docname="multi-marker.svg"
   inkscape:export-filename="/home/tom/git/taiji/client/images/multi-marker.png"
   inkscape:export-xdpi="8.203125"
   inkscape:export-ydpi="8.203125"><metadata
     id="metadata3020"><rdf:RDF><cc:Work
         rdf:about=""><dc:format>image/svg+xml</dc:format><dc:type
           rdf:resource="http://purl.org/dc/dcmitype/StillImage" /><dc:title /></cc:Work></rdf:RDF></metadata><defs
     id="defs3018" /><sodipodi:namedview
     pagecolor="#ffffff"
     bordercolor="#666666"
     borderopacity="1"
     objecttolerance="10"
     gridtolerance="10"
     guidetolerance="10"
     inkscape:pageopacity="0"
     inkscape:pageshadow="2"
     inkscape:window-width="1600"
     inkscape:window-height="885"
     id="namedview3016"
     showgrid="false"
     inkscape:zoom="1"
     inkscape:cx="290.11106"
     inkscape:cy="241.37648"
     inkscape:window-x="0"
     inkscape:window-y="15"
     inkscape:window-maximized="0"
     inkscape:current-layer="Layer_1" /><path
     d="M 256,0 C 149.969,0 64,85.969 64,192 64,298.031 224,512 256,512 288,512 448,298.031 448,192 448,85.969 362.031,0 256,0 z"
     id="path3014"
     inkscape:connector-curvature="0"
     sodipodi:nodetypes="sssss" /><path
     sodipodi:type="arc"
     style="fill:#ffffff;fill-rule:evenodd;stroke:#000000;stroke-width:1px;stroke-linecap:butt;stroke-linejoin:miter;stroke-opacity:1;fill-opacity:1"
     id="path3119"
     sodipodi:cx="295.83862"
     sodipodi:cy="284.03458"
     sodipodi:rx="146.81268"
     sodipodi:ry="146.81268"
     d="m 442.65131,284.03458 a 146.81268,146.81268 0 1 1 -293.62537,0 146.81268,146.81268 0 1 1 293.62537,0 z"
     transform="matrix(1.1252017,0,0,1.1252017,-76.878122,-127.59619)" /><path
     inkscape:connector-curvature="0"
     d="m 339.9787,191.99994 c 0,-46.30692 -37.6718,-83.97873 -83.97872,-83.97873 -0.95878,0 -1.90531,0.0408 -2.85797,0.0735 v -0.0204 c -0.2754,0 -0.54263,0.0347 -0.81802,0.0408 -0.42839,0.0204 -0.85882,0.0428 -1.28722,0.0674 -1.02609,0.0489 -2.04808,0.11219 -3.05377,0.23254 -42.5575,4.0493 -75.96171,39.98512 -75.96171,83.58501 0,46.30692 37.6718,83.97872 83.97869,83.97872 46.30692,0 83.97872,-37.6718 83.97872,-83.97872 z m -73.38524,-38.95288 c 0,5.85058 -4.74493,10.59347 -10.59348,10.59347 -5.85058,0 -10.59344,-4.74289 -10.59344,-10.59347 0,-5.85059 4.74286,-10.59348 10.59344,-10.59348 5.84855,0 10.59348,4.74494 10.59348,10.59348 z m 25.19748,79.10525 c 0,20.50765 -17.33347,37.19038 -38.63872,37.19038 v 0.0693 c -41.40899,-1.50344 -74.63776,-35.64 -74.63776,-77.4121 0,-34.00601 22.03148,-62.94681 52.56548,-73.35059 -11.38089,7.37649 -18.95319,20.21799 -18.95319,34.82609 0,22.80055 18.39425,41.35187 41.0275,41.42123 v 0.0653 c 21.30526,0 38.63669,16.68273 38.63669,37.19036 z m -35.79096,11.90721 c -5.85058,0 -10.59344,-4.74289 -10.59344,-10.59347 0,-5.85058 4.74286,-10.59348 10.59344,-10.59348 5.84855,0 10.59348,4.7429 10.59348,10.59348 0,5.85058 -4.74493,10.59347 -10.59348,10.59347 z"
     id="path3060" /><path
     sodipodi:type="star"
     style="fill:none;stroke:#000000;stroke-opacity:1"
     id="path3316"
     sodipodi:sides="8"
     sodipodi:cx="750"
     sodipodi:cy="356"
     sodipodi:r1="114.90866"
     sodipodi:r2="106.16176"
     sodipodi:arg1="1.0471976"
     sodipodi:arg2="1.4398966"
     inkscape:flatsided="true"
     inkscape:rounded="0"
     inkscape:randomized="0"
     d="m 807.45433,455.51382 -87.19489,11.47942 -69.77326,-53.53891 -11.47942,-87.19489 53.53891,-69.77326 87.19489,-11.47942 69.77326,53.53891 11.47942,87.19489 z"
     transform="matrix(1.2520671,0.16483777,-0.16483777,1.2520671,-624.36808,-377.36422)" /></svg>