<?xml version="1.0" encoding="UTF-8" standalone="no"?>
<!-- Generator: Adobe Illustrator 16.0.0, SVG Export Plug-In . SVG Version: 6.00 Build 0)  -->

<svg
   xmlns:dc="http://purl.org/dc/elements/1.1/"
   xmlns:cc="http://creativecommons.org/ns#"
   xmlns:rdf="http://www.w3.org/1999/02/22-rdf-syntax-ns#"
   xmlns:svg="http://www.w3.org/2000/svg"
   xmlns="http://www.w3.org/2000/svg"
   xmlns:sodipodi="http://sodipodi.sourceforge.net/DTD/sodipodi-0.dtd"
   xmlns:inkscape="http://www.inkscape.org/namespaces/inkscape"
   version="1.1"
   id="Layer_1"
   x="0px"
   y="0px"
   width="512px"
   height="512px"
   viewBox="0 0 512 512"
   enable-background="new 0 0 512 512"
   xml:space="preserve"
   inkscape:version="0.48.5 r10040"
   sodipodi:docname="red-marker.svg"
   inkscape:export-filename="/home/tom/git/taiji/assets/red-marker.png"
   inkscape:export-xdpi="8.203125"
   inkscape:export-ydpi="8.203125"><metadata
     id="metadata3020"><rdf:RDF><cc:Work
         rdf:about=""><dc:format>image/svg+xml</dc:format><dc:type
           rdf:resource="http://purl.org/dc/dcmitype/StillImage" /><dc:title></dc:title></cc:Work></rdf:RDF></metadata><defs
     id="defs3018" /><sodipodi:namedview
     pagecolor="#ffffff"
     bordercolor="#666666"
     borderopacity="1"
     objecttolerance="10"
     gridtolerance="10"
     guidetolerance="10"
     inkscape:pageopacity="0"
     inkscape:pageshadow="2"
     inkscape:window-width="1600"
     inkscape:window-height="885"
     id="namedview3016"
     showgrid="false"
     inkscape:zoom="0.74025241"
     inkscape:cx="349.53665"
     inkscape:cy="229.09832"
     inkscape:window-x="0"
     inkscape:window-y="15"
     inkscape:window-maximized="0"
     inkscape:current-layer="Layer_1" /><path
     d="M 256,0 C 149.969,0 64,85.969 64,192 64,298.031 224,512 256,512 288,512 448,298.031 448,192 448,85.969 362.031,0 256,0 z"
     id="path3014"
     inkscape:connector-curvature="0"
     sodipodi:nodetypes="sssss" /><path
     sodipodi:type="arc"
     style="fill:#ffffff;fill-rule:evenodd;stroke:#000000;stroke-width:1px;stroke-linecap:butt;stroke-linejoin:miter;stroke-opacity:1;fill-opacity:1"
     id="path3119"
     sodipodi:cx="295.83862"
     sodipodi:cy="284.03458"
     sodipodi:rx="146.81268"
     sodipodi:ry="146.81268"
     d="m 442.65131,284.03458 a 146.81268,146.81268 0 1 1 -293.62537,0 146.81268,146.81268 0 1 1 293.62537,0 z"
     transform="matrix(1.1252017,0,0,1.1252017,-76.878122,-127.59619)" /><path
     inkscape:connector-curvature="0"
     d="m 408.19867,192.00002 c 0,-83.92426 -68.27442,-152.19872 -152.1987,-152.19872 -1.73763,0 -3.45308,0.0739 -5.17963,0.13314 v -0.037 c -0.49912,0 -0.98344,0.0628 -1.48255,0.0739 -0.77638,0.037 -1.55647,0.0776 -2.33287,0.12203 -1.85965,0.0887 -3.71186,0.20334 -5.53452,0.42147 C 164.3414,47.85357 103.80132,112.9818 103.80132,192 c 0,83.92427 68.27443,152.1987 152.19865,152.1987 83.92427,0 152.1987,-68.27443 152.1987,-152.1987 z M 275.19905,121.40383 c 0,10.60329 -8.59947,19.19906 -19.19907,19.19906 -10.60329,0 -19.19902,-8.59577 -19.19902,-19.19906 0,-10.6033 8.59573,-19.19907 19.19902,-19.19907 10.5996,0 19.19907,8.59948 19.19907,19.19907 z m 45.66662,143.3663 c 0,37.16699 -31.41428,67.40191 -70.02684,67.40191 v 0.12573 c -75.0475,-2.72477 -135.26962,-64.5921 -135.26962,-140.29772 0,-61.63071 39.92872,-114.08154 95.26698,-132.93681 -20.62615,13.36877 -34.3498,36.64204 -34.3498,63.11701 0,41.32253 33.33679,74.94399 74.35613,75.06969 v 0.11833 c 38.61256,0 70.02315,30.23491 70.02315,67.4019 z m -64.86569,21.58 c -10.60329,0 -19.19902,-8.59577 -19.19902,-19.19906 0,-10.6033 8.59573,-19.19907 19.19902,-19.19907 10.5996,0 19.19907,8.59577 19.19907,19.19907 0,10.60329 -8.59947,19.19906 -19.19907,19.19906 z"
     id="path3060" /></svg>